<?xml version="1.0" encoding="utf-8"?>
<!-- Svg Vector Icons : http://www.onlinewebfonts.com/icon -->
<!DOCTYPE svg PUBLIC "-//W3C//DTD SVG 1.1//EN" "http://www.w3.org/Graphics/SVG/1.1/DTD/svg11.dtd">
<svg version="1.1" xmlns="http://www.w3.org/2000/svg" xmlns:xlink="http://www.w3.org/1999/xlink" x="0px" y="0px" viewBox="0 0 1000 1000" enable-background="new 0 0 1000 1000" xml:space="preserve">
<metadata> Svg Vector Icons : http://www.onlinewebfonts.com/icon </metadata>
<g><g><path d="M500,10C229.4,10,10,229.4,10,500c0,270.6,219.4,490,490,490c270.6,0,490-219.4,490-490C990,229.4,770.6,10,500,10z M500,913.4C271.7,913.4,86.6,728.3,86.6,500S271.7,86.6,500,86.6S913.4,271.7,913.4,500S728.3,913.4,500,913.4z"/><g><g><path d="M255.2,744.8h91.9V377.3h-91.9V744.8z M622.7,377.3c-78.7,1.3-117.4,58.6-122.5,61.3v-61.3h-91.9v367.5h91.9V530.4c0-7.9,19.4-70.8,91.9-61.2c38.9,2.5,59.9,54,61.3,61.2v214.4l91.5,0.4V490.8C741.6,454.1,723.2,378.6,622.7,377.3z M301.1,254.8c-25.4,0-45.9,20.5-45.9,45.9s20.6,45.9,45.9,45.9s45.9-20.5,45.9-45.9S326.5,254.8,301.1,254.8z"/></g></g></g><g></g><g></g><g></g><g></g><g></g><g></g><g></g><g></g><g></g><g></g><g></g><g></g><g></g><g></g><g></g></g>
</svg>